<?xml version="1.0" encoding="utf-8"?>
<!-- Generator: Adobe Illustrator 23.0.5, SVG Export Plug-In . SVG Version: 6.00 Build 0)  -->
<svg version="1.1" id="Layer_1" xmlns="http://www.w3.org/2000/svg" xmlns:xlink="http://www.w3.org/1999/xlink" x="0px" y="0px"
	 viewBox="0 0 384 96" style="enable-background:new 0 0 384 96;" xml:space="preserve">
<style type="text/css">
	.st0{enable-background:new    ;}
	.st1{fill:#091526;}
	.st2{fill:url(#SVGID_1_);}
</style>
<g>
	<g class="st0">
		<path class="st1" d="M109.4,67.8c-2-0.9-3.7-2.1-4.9-3.8c-1.2-1.6-1.8-3.6-1.8-5.8h7.9c0.1,1.5,0.6,2.7,1.6,3.6
			c1,0.9,2.3,1.3,4,1.3c1.7,0,3.1-0.4,4-1.2c1-0.8,1.5-1.9,1.5-3.2c0-1.1-0.3-2-1-2.7c-0.7-0.7-1.5-1.3-2.5-1.7
			c-1-0.4-2.4-0.8-4.1-1.3c-2.4-0.7-4.3-1.4-5.8-2.1c-1.5-0.7-2.8-1.7-3.8-3.1c-1.1-1.4-1.6-3.2-1.6-5.5c0-2.2,0.5-4.1,1.6-5.7
			c1.1-1.6,2.6-2.8,4.6-3.7c2-0.9,4.2-1.3,6.7-1.3c3.8,0,6.9,0.9,9.2,2.8c2.4,1.8,3.7,4.4,3.9,7.7h-8.1c-0.1-1.3-0.6-2.3-1.6-3.1
			c-1-0.8-2.3-1.2-4-1.2c-1.4,0-2.6,0.4-3.4,1.1c-0.9,0.7-1.3,1.8-1.3,3.2c0,1,0.3,1.8,1,2.4c0.6,0.6,1.5,1.2,2.4,1.6
			c1,0.4,2.3,0.9,4.1,1.4c2.4,0.7,4.3,1.4,5.8,2.1c1.5,0.7,2.8,1.8,3.9,3.2c1.1,1.4,1.6,3.2,1.6,5.5c0,2-0.5,3.8-1.5,5.5
			c-1,1.7-2.5,3-4.5,4c-2,1-4.3,1.5-7,1.5C113.7,69.1,111.4,68.6,109.4,67.8z"/>
		<path class="st1" d="M144.2,45.6v14.1c0,1,0.2,1.7,0.7,2.1c0.5,0.4,1.3,0.7,2.4,0.7h3.4v6.2h-4.6c-6.2,0-9.3-3-9.3-9v-14h-3.5v-6
			h3.5v-7.2h7.4v7.2h6.5v6H144.2z"/>
		<path class="st1" d="M155.9,46.2c1.2-2.3,2.8-4,4.8-5.3c2-1.2,4.3-1.8,6.8-1.8c2.2,0,4.1,0.4,5.7,1.3c1.6,0.9,2.9,2,3.9,3.3v-4.2
			h7.4v29.1H177v-4.3c-0.9,1.4-2.3,2.5-3.9,3.4c-1.7,0.9-3.6,1.3-5.8,1.3c-2.5,0-4.7-0.6-6.7-1.9c-2-1.3-3.6-3-4.8-5.3
			c-1.2-2.3-1.8-4.9-1.8-7.9C154.1,51.1,154.7,48.5,155.9,46.2z M176,49.6c-0.7-1.3-1.6-2.3-2.8-2.9c-1.2-0.7-2.5-1-3.8-1
			c-1.4,0-2.6,0.3-3.8,1c-1.2,0.7-2.1,1.6-2.8,2.9c-0.7,1.3-1.1,2.8-1.1,4.5c0,1.8,0.4,3.3,1.1,4.6c0.7,1.3,1.7,2.3,2.8,3
			c1.2,0.7,2.4,1.1,3.8,1.1c1.4,0,2.6-0.3,3.8-1c1.2-0.7,2.1-1.7,2.8-2.9c0.7-1.3,1.1-2.8,1.1-4.6C177,52.4,176.7,50.8,176,49.6z"/>
		<path class="st1" d="M202.7,40.5c1.5-0.9,3.3-1.3,5.2-1.3v7.7H206c-2.3,0-4.1,0.5-5.2,1.6s-1.8,3-1.8,5.7v14.5h-7.4V39.6h7.4v4.5
			C199.9,42.6,201.2,41.4,202.7,40.5z"/>
		<path class="st1" d="M213.5,40.6c1.6-2.9,3.9-5.1,6.7-6.7c2.8-1.6,6-2.4,9.5-2.4c4.1,0,7.7,1.1,10.8,3.2c3.1,2.1,5.2,5,6.5,8.7
			h-8.5c-0.8-1.8-2-3.1-3.5-3.9s-3.3-1.3-5.3-1.3c-2.1,0-4,0.5-5.7,1.5c-1.7,1-3,2.4-3.9,4.2c-0.9,1.8-1.4,4-1.4,6.4
			c0,2.4,0.5,4.5,1.4,6.4s2.2,3.3,3.9,4.3c1.7,1,3.6,1.5,5.7,1.5c2,0,3.8-0.4,5.3-1.3s2.7-2.2,3.5-4h8.5c-1.2,3.8-3.4,6.7-6.4,8.8
			c-3.1,2.1-6.7,3.1-10.8,3.1c-3.5,0-6.7-0.8-9.5-2.4c-2.8-1.6-5-3.8-6.7-6.6c-1.6-2.8-2.4-6.1-2.4-9.7S211.9,43.5,213.5,40.6z"/>
		<path class="st1" d="M260.6,29.8v38.9h-7.4V29.8H260.6z"/>
		<path class="st1" d="M268.4,34.9c-0.9-0.8-1.3-1.8-1.3-3.1s0.4-2.3,1.3-3.1c0.9-0.8,1.9-1.2,3.2-1.2c1.3,0,2.4,0.4,3.2,1.2
			c0.9,0.8,1.3,1.8,1.3,3.1s-0.4,2.3-1.3,3.1c-0.9,0.8-1.9,1.2-3.2,1.2C270.3,36.1,269.2,35.7,268.4,34.9z M275.2,39.6v29.1h-7.4
			V39.6H275.2z"/>
		<path class="st1" d="M307,42.5c2.1,2.2,3.2,5.2,3.2,9.2v17.1h-7.4V52.6c0-2.3-0.6-4.1-1.7-5.3c-1.2-1.2-2.7-1.9-4.7-1.9
			c-2,0-3.6,0.6-4.8,1.9c-1.2,1.2-1.8,3-1.8,5.3v16.1h-7.4V39.6h7.4v3.6c1-1.3,2.2-2.3,3.8-3c1.5-0.7,3.2-1.1,5-1.1
			C302.1,39.2,304.9,40.3,307,42.5z"/>
		<path class="st1" d="M317.2,46.2c1.2-2.3,2.9-4,5.1-5.3c2.2-1.2,4.7-1.9,7.5-1.9c3.6,0,6.6,0.9,9,2.7c2.4,1.8,4,4.3,4.8,7.6h-7.9
			c-0.4-1.3-1.1-2.3-2.1-3c-1-0.7-2.2-1.1-3.7-1.1c-2.1,0-3.8,0.8-5,2.3c-1.2,1.5-1.8,3.7-1.8,6.5c0,2.8,0.6,4.9,1.8,6.4
			c1.2,1.5,2.9,2.3,5,2.3c3,0,4.9-1.3,5.8-4h7.9c-0.8,3.2-2.4,5.7-4.8,7.5c-2.4,1.9-5.4,2.8-8.9,2.8c-2.8,0-5.3-0.6-7.5-1.9
			c-2.2-1.2-3.9-3-5.1-5.3c-1.2-2.3-1.8-4.9-1.8-7.9S315.9,48.5,317.2,46.2z"/>
		<path class="st1" d="M371.1,40.6c1.7,1,3.1,2.4,4,4.3c1,1.9,1.4,4.1,1.4,6.8v17.1h-7.4V52.6c0-2.3-0.6-4.1-1.7-5.3
			c-1.2-1.2-2.7-1.9-4.7-1.9c-2,0-3.6,0.6-4.8,1.9c-1.2,1.2-1.8,3-1.8,5.3v16.1h-7.4V29.8h7.4v13.4c0.9-1.3,2.2-2.3,3.8-3
			c1.6-0.7,3.3-1.1,5.3-1.1C367.5,39.2,369.4,39.7,371.1,40.6z"/>
	</g>
	
		<linearGradient id="SVGID_1_" gradientUnits="userSpaceOnUse" x1="67.5993" y1="27.3744" x2="20.1992" y2="70.8937" gradientTransform="matrix(1 0 0 1 0 2)">
		<stop  offset="0" style="stop-color:#FB6A2B"/>
		<stop  offset="1" style="stop-color:#F11C79"/>
	</linearGradient>
	<polygon class="st2" points="63.1,32.2 51.7,4.3 41.3,4.3 27.6,37.8 38.6,48.8 52.2,62.4 46.5,76.4 40.7,62.4 38.4,56.8 37.3,56.4 
		37.3,56.4 37.3,56.4 18.8,48.8 24.2,46.5 24.2,34.5 2,43.6 2,53.9 29.9,65.4 41.3,93.2 51.7,93.2 65.4,59.8 54.4,48.8 40.7,35.1 
		46.5,21.1 52.2,35.1 52.2,35.1 52.2,35.1 54.5,40.7 55.6,41.2 55.6,41.2 55.6,41.2 74.2,48.8 68.7,51 68.7,63 91,53.9 91,43.6 	"/>
</g>
</svg>
